<mxfile host="Electron" agent="Mozilla/5.0 (Macintosh; Intel Mac OS X 10_15_7) AppleWebKit/537.36 (KHTML, like Gecko) draw.io/27.0.9 Chrome/134.0.6998.205 Electron/35.4.0 Safari/537.36" version="27.0.9">
  <diagram name="Page-1" id="4vZmwfqMS6sxwy4K_YG9">
    <mxGraphModel dx="1424" dy="1073" grid="1" gridSize="10" guides="1" tooltips="1" connect="1" arrows="1" fold="1" page="1" pageScale="1" pageWidth="850" pageHeight="1100" math="0" shadow="0">
      <root>
        <mxCell id="0" />
        <mxCell id="1" parent="0" />
        <mxCell id="qz8rHRJ9PeAzRS3f3c42-6" value="TB" style="rounded=0;whiteSpace=wrap;html=1;fontSize=20;verticalAlign=top;align=center;fillColor=#b1ddf0;strokeColor=#10739e;" parent="1" vertex="1">
          <mxGeometry x="120" y="80" width="520" height="540" as="geometry" />
        </mxCell>
        <mxCell id="NM04y9xdlAhvNInuIH5k-3" value="TC" style="rounded=0;whiteSpace=wrap;html=1;fontSize=20;verticalAlign=top;align=left;fillColor=#dae8fc;strokeColor=#6c8ebf;" parent="1" vertex="1">
          <mxGeometry x="160" y="153" width="270" height="447" as="geometry" />
        </mxCell>
        <mxCell id="NM04y9xdlAhvNInuIH5k-2" value="TC" style="rounded=0;whiteSpace=wrap;html=1;fontSize=20;verticalAlign=top;align=left;fillColor=#dae8fc;strokeColor=#6c8ebf;" parent="1" vertex="1">
          <mxGeometry x="150" y="140" width="270" height="450" as="geometry" />
        </mxCell>
        <mxCell id="qz8rHRJ9PeAzRS3f3c42-4" value="TC" style="rounded=0;whiteSpace=wrap;html=1;fontSize=20;verticalAlign=top;align=center;fillColor=#dae8fc;strokeColor=#6c8ebf;" parent="1" vertex="1">
          <mxGeometry x="140" y="130" width="270" height="450" as="geometry" />
        </mxCell>
        <mxCell id="qz8rHRJ9PeAzRS3f3c42-2" value="DUT" style="rounded=0;whiteSpace=wrap;html=1;fontSize=20;fillColor=#fff2cc;strokeColor=#d6b656;" parent="1" vertex="1">
          <mxGeometry x="530" y="190" width="90" height="270" as="geometry" />
        </mxCell>
        <mxCell id="qz8rHRJ9PeAzRS3f3c42-3" value="INTERFACE" style="rounded=0;whiteSpace=wrap;html=1;fillColor=#cdeb8b;strokeColor=#36393d;" parent="1" vertex="1">
          <mxGeometry x="450" y="220" width="80" height="40" as="geometry" />
        </mxCell>
        <mxCell id="qz8rHRJ9PeAzRS3f3c42-5" value="INTERFACE" style="rounded=0;whiteSpace=wrap;html=1;fillColor=#cdeb8b;strokeColor=#36393d;" parent="1" vertex="1">
          <mxGeometry x="450" y="361.5" width="80" height="40" as="geometry" />
        </mxCell>
        <mxCell id="qz8rHRJ9PeAzRS3f3c42-7" value="clock BFM" style="rounded=0;whiteSpace=wrap;html=1;dashed=1;dashPattern=8 8;fillColor=#fad9d5;strokeColor=#ae4132;" parent="1" vertex="1">
          <mxGeometry x="360" y="220" width="90" height="40" as="geometry" />
        </mxCell>
        <mxCell id="qz8rHRJ9PeAzRS3f3c42-8" value="axis BFM" style="rounded=0;whiteSpace=wrap;html=1;dashed=1;dashPattern=8 8;fillColor=#fad9d5;strokeColor=#ae4132;align=center;verticalAlign=top;" parent="1" vertex="1">
          <mxGeometry x="150" y="270" width="300" height="210" as="geometry" />
        </mxCell>
        <mxCell id="qz8rHRJ9PeAzRS3f3c42-12" value="&lt;font face=&quot;Courier New&quot;&gt;&lt;b&gt;initial&lt;/b&gt;&lt;/font&gt;&lt;div&gt;&lt;font face=&quot;Courier New&quot;&gt;&lt;b&gt;&amp;nbsp;begin&lt;/b&gt;&lt;/font&gt;&lt;/div&gt;&lt;div&gt;&lt;font face=&quot;Courier New&quot;&gt;&lt;b&gt;&lt;br&gt;&lt;/b&gt;&lt;/font&gt;&lt;/div&gt;&lt;div&gt;&lt;font face=&quot;Courier New&quot;&gt;&lt;b&gt;&amp;nbsp;create dynamic BFM object -&amp;gt;&lt;/b&gt;&lt;/font&gt;&lt;/div&gt;&lt;div&gt;&lt;font face=&quot;Courier New&quot;&gt;&lt;b&gt;&lt;br&gt;&lt;/b&gt;&lt;/font&gt;&lt;/div&gt;&lt;div&gt;&lt;font face=&quot;Courier New&quot;&gt;&lt;b&gt;&lt;br&gt;&lt;/b&gt;&lt;/font&gt;&lt;/div&gt;&lt;div&gt;&lt;font face=&quot;Courier New&quot;&gt;&lt;b&gt;&lt;br&gt;&lt;/b&gt;&lt;/font&gt;&lt;/div&gt;&lt;div&gt;&lt;font face=&quot;Courier New&quot;&gt;&lt;b&gt;&lt;br&gt;&lt;/b&gt;&lt;/font&gt;&lt;/div&gt;&lt;div&gt;&lt;br&gt;&lt;/div&gt;&lt;div&gt;&lt;font face=&quot;Courier New&quot;&gt;&lt;b&gt;&amp;nbsp;&lt;/b&gt;&lt;/font&gt;&lt;/div&gt;&lt;div&gt;&lt;font face=&quot;Courier New&quot;&gt;&lt;b&gt;&lt;br&gt;&lt;/b&gt;&lt;/font&gt;&lt;/div&gt;&lt;div&gt;&lt;font face=&quot;Courier New&quot;&gt;&lt;b&gt;&lt;br&gt;&lt;/b&gt;&lt;/font&gt;&lt;/div&gt;&lt;div&gt;&lt;font face=&quot;Courier New&quot;&gt;&lt;b&gt;&lt;br&gt;&lt;/b&gt;&lt;/font&gt;&lt;/div&gt;&lt;div&gt;&lt;font face=&quot;Courier New&quot;&gt;&lt;b&gt;&lt;br&gt;&lt;/b&gt;&lt;/font&gt;&lt;/div&gt;&lt;div&gt;&lt;font face=&quot;Courier New&quot;&gt;&lt;b&gt;&lt;br&gt;&lt;/b&gt;&lt;/font&gt;&lt;/div&gt;&lt;div&gt;&lt;font face=&quot;Courier New&quot;&gt;&lt;b&gt;&lt;br&gt;&lt;/b&gt;&lt;/font&gt;&lt;/div&gt;&lt;div&gt;&lt;font face=&quot;Courier New&quot;&gt;&lt;b&gt;&lt;br&gt;&lt;/b&gt;&lt;/font&gt;&lt;/div&gt;&lt;div&gt;&lt;font face=&quot;Courier New&quot;&gt;&lt;b&gt;&lt;br&gt;&lt;/b&gt;&lt;/font&gt;&lt;/div&gt;&lt;div&gt;&lt;font face=&quot;Courier New&quot;&gt;&lt;b&gt;&lt;br&gt;&lt;/b&gt;&lt;/font&gt;&lt;/div&gt;&lt;div&gt;&lt;font face=&quot;Courier New&quot;&gt;&lt;b&gt;&lt;br&gt;&lt;/b&gt;&lt;/font&gt;&lt;/div&gt;&lt;div&gt;&lt;font style=&quot;color: light-dark(rgb(255, 0, 0), rgb(237, 237, 237));&quot; face=&quot;Courier New&quot;&gt;&lt;b&gt;&amp;nbsp;test-case body&lt;/b&gt;&lt;/font&gt;&lt;/div&gt;&lt;div&gt;&lt;font face=&quot;Courier New&quot;&gt;&lt;b&gt;&lt;br&gt;&lt;/b&gt;&lt;/font&gt;&lt;/div&gt;&lt;div&gt;&lt;font face=&quot;Courier New&quot;&gt;&lt;b&gt;&lt;br&gt;&lt;/b&gt;&lt;/font&gt;&lt;/div&gt;&lt;div&gt;&lt;font face=&quot;Courier New&quot;&gt;&lt;b&gt;&lt;br&gt;&lt;/b&gt;&lt;/font&gt;&lt;/div&gt;&lt;div&gt;&lt;font face=&quot;Courier New&quot;&gt;&lt;b&gt;&amp;nbsp;end&lt;/b&gt;&lt;/font&gt;&lt;/div&gt;" style="text;html=1;align=left;verticalAlign=top;whiteSpace=wrap;rounded=0;" parent="1" vertex="1">
          <mxGeometry x="140" y="183" width="260" height="397" as="geometry" />
        </mxCell>
        <mxCell id="ljlgUFd7Ws2BZCSvz1c0-1" value="monitor" style="rounded=0;whiteSpace=wrap;html=1;fontSize=18;fillColor=#60a917;fontColor=#ffffff;strokeColor=#2D7600;" parent="1" vertex="1">
          <mxGeometry x="350" y="290" width="70" height="80" as="geometry" />
        </mxCell>
        <mxCell id="ljlgUFd7Ws2BZCSvz1c0-2" value="driver" style="rounded=0;whiteSpace=wrap;html=1;fontSize=18;fillColor=#f0a30a;fontColor=#FFFFFF;strokeColor=#BD7000;" parent="1" vertex="1">
          <mxGeometry x="350" y="390" width="70" height="70" as="geometry" />
        </mxCell>
        <mxCell id="ljlgUFd7Ws2BZCSvz1c0-3" value="tlp" style="rounded=0;whiteSpace=wrap;html=1;fontSize=18;fillColor=#f0a30a;fontColor=#FFFFFF;strokeColor=#BD7000;dashed=1;strokeWidth=3;dashPattern=1 1;rotation=-90;" parent="1" vertex="1">
          <mxGeometry x="300" y="410" width="70" height="30" as="geometry" />
        </mxCell>
        <mxCell id="ljlgUFd7Ws2BZCSvz1c0-4" value="tlp" style="rounded=0;whiteSpace=wrap;html=1;fontSize=18;fillColor=#60a917;fontColor=#ffffff;strokeColor=#2D7600;dashed=1;dashPattern=1 1;strokeWidth=3;rotation=-90;" parent="1" vertex="1">
          <mxGeometry x="295" y="315" width="80" height="30" as="geometry" />
        </mxCell>
        <mxCell id="ljlgUFd7Ws2BZCSvz1c0-5" value="&lt;div&gt;scoreboard&lt;/div&gt;" style="rounded=0;whiteSpace=wrap;html=1;rotation=-90;fillColor=#cce5ff;strokeColor=#36393d;fontSize=18;" parent="1" vertex="1">
          <mxGeometry x="142.5" y="312.5" width="100" height="55" as="geometry" />
        </mxCell>
        <mxCell id="ljlgUFd7Ws2BZCSvz1c0-6" value="&lt;div&gt;predictor&lt;/div&gt;" style="rounded=0;whiteSpace=wrap;html=1;rotation=-90;fillColor=#cce5ff;strokeColor=#36393d;fontSize=18;" parent="1" vertex="1">
          <mxGeometry x="230" y="345" width="80" height="40" as="geometry" />
        </mxCell>
        <mxCell id="ljlgUFd7Ws2BZCSvz1c0-8" value="" style="endArrow=classic;html=1;rounded=0;entryX=1.006;entryY=0.605;entryDx=0;entryDy=0;entryPerimeter=0;" parent="1" edge="1">
          <mxGeometry width="50" height="50" relative="1" as="geometry">
            <mxPoint x="451" y="365" as="sourcePoint" />
            <mxPoint x="420.41999999999996" y="365.4" as="targetPoint" />
          </mxGeometry>
        </mxCell>
        <mxCell id="ljlgUFd7Ws2BZCSvz1c0-9" value="" style="endArrow=classic;html=1;rounded=0;entryX=0;entryY=0.5;entryDx=0;entryDy=0;exitX=0.994;exitY=0.945;exitDx=0;exitDy=0;exitPerimeter=0;" parent="1" edge="1">
          <mxGeometry width="50" height="50" relative="1" as="geometry">
            <mxPoint x="420" y="394.5" as="sourcePoint" />
            <mxPoint x="450" y="394" as="targetPoint" />
          </mxGeometry>
        </mxCell>
        <mxCell id="ljlgUFd7Ws2BZCSvz1c0-11" value="" style="endArrow=classic;html=1;rounded=0;entryX=1.006;entryY=0.605;entryDx=0;entryDy=0;entryPerimeter=0;" parent="1" edge="1">
          <mxGeometry width="50" height="50" relative="1" as="geometry">
            <mxPoint x="250.58000000000004" y="361.5" as="sourcePoint" />
            <mxPoint x="220" y="361.9" as="targetPoint" />
          </mxGeometry>
        </mxCell>
        <mxCell id="ljlgUFd7Ws2BZCSvz1c0-12" value="" style="endArrow=classic;html=1;rounded=0;entryX=1.006;entryY=0.605;entryDx=0;entryDy=0;entryPerimeter=0;exitX=0.75;exitY=0;exitDx=0;exitDy=0;" parent="1" source="ljlgUFd7Ws2BZCSvz1c0-4" edge="1">
          <mxGeometry width="50" height="50" relative="1" as="geometry">
            <mxPoint x="250.58000000000004" y="310" as="sourcePoint" />
            <mxPoint x="220" y="310.4" as="targetPoint" />
          </mxGeometry>
        </mxCell>
        <mxCell id="ljlgUFd7Ws2BZCSvz1c0-16" value="" style="endArrow=classic;html=1;rounded=0;entryX=0;entryY=0.5;entryDx=0;entryDy=0;" parent="1" target="ljlgUFd7Ws2BZCSvz1c0-6" edge="1">
          <mxGeometry width="50" height="50" relative="1" as="geometry">
            <mxPoint x="270" y="510" as="sourcePoint" />
            <mxPoint x="280" y="480.4" as="targetPoint" />
          </mxGeometry>
        </mxCell>
        <mxCell id="ljlgUFd7Ws2BZCSvz1c0-17" value="" style="endArrow=classic;html=1;rounded=0;entryX=0;entryY=0.5;entryDx=0;entryDy=0;" parent="1" edge="1">
          <mxGeometry width="50" height="50" relative="1" as="geometry">
            <mxPoint x="335" y="510" as="sourcePoint" />
            <mxPoint x="334.5" y="460" as="targetPoint" />
          </mxGeometry>
        </mxCell>
        <mxCell id="ljlgUFd7Ws2BZCSvz1c0-18" value="TB" style="rounded=0;whiteSpace=wrap;html=1;fontSize=20;verticalAlign=top;align=center;fillColor=#b1ddf0;strokeColor=#10739e;" parent="1" vertex="1">
          <mxGeometry x="680" y="80" width="520" height="540" as="geometry" />
        </mxCell>
        <mxCell id="ljlgUFd7Ws2BZCSvz1c0-20" value="" style="shape=flexArrow;endArrow=classic;html=1;rounded=0;entryX=1.004;entryY=0.057;entryDx=0;entryDy=0;entryPerimeter=0;exitX=0.006;exitY=0.056;exitDx=0;exitDy=0;exitPerimeter=0;fillColor=#E6E6E6;" parent="1" source="ljlgUFd7Ws2BZCSvz1c0-18" target="qz8rHRJ9PeAzRS3f3c42-6" edge="1">
          <mxGeometry width="50" height="50" relative="1" as="geometry">
            <mxPoint x="360" y="380" as="sourcePoint" />
            <mxPoint x="410" y="330" as="targetPoint" />
          </mxGeometry>
        </mxCell>
        <mxCell id="ljlgUFd7Ws2BZCSvz1c0-21" value="" style="shape=flexArrow;endArrow=classic;html=1;rounded=0;entryX=1.004;entryY=0.057;entryDx=0;entryDy=0;entryPerimeter=0;exitX=0.007;exitY=0.091;exitDx=0;exitDy=0;exitPerimeter=0;fillColor=#E6E6E6;" parent="1" source="ljlgUFd7Ws2BZCSvz1c0-19" edge="1">
          <mxGeometry width="50" height="50" relative="1" as="geometry">
            <mxPoint x="471" y="160" as="sourcePoint" />
            <mxPoint x="430" y="161" as="targetPoint" />
          </mxGeometry>
        </mxCell>
        <mxCell id="ljlgUFd7Ws2BZCSvz1c0-24" value="TC" style="rounded=0;whiteSpace=wrap;html=1;fontSize=20;verticalAlign=top;align=left;fillColor=#dae8fc;strokeColor=#6c8ebf;" parent="1" vertex="1">
          <mxGeometry x="930" y="126.5" width="260" height="450" as="geometry" />
        </mxCell>
        <mxCell id="ljlgUFd7Ws2BZCSvz1c0-22" value="&lt;p style=&quot;margin: 0cm; font-family: Calibri, sans-serif;&quot; class=&quot;MsoNormal&quot;&gt;&lt;span style=&quot;&quot; lang=&quot;EN-US&quot;&gt;&lt;font style=&quot;font-size: 14px;&quot;&gt;&lt;i&gt;&lt;b&gt;tb.sv&lt;/b&gt;&lt;/i&gt;&lt;/font&gt;&lt;/span&gt;&lt;/p&gt;&lt;p style=&quot;margin: 0cm; font-family: Calibri, sans-serif;&quot; class=&quot;MsoNormal&quot;&gt;&lt;span style=&quot;&quot; lang=&quot;EN-US&quot;&gt;&lt;font style=&quot;font-size: 14px;&quot;&gt;&amp;nbsp;&lt;/font&gt;&lt;/span&gt;&lt;/p&gt;&lt;p style=&quot;margin: 0cm; font-family: Calibri, sans-serif;&quot; class=&quot;MsoNormal&quot;&gt;&lt;span style=&quot;&quot; lang=&quot;EN-US&quot;&gt;&lt;font style=&quot;font-size: 14px;&quot;&gt;module tb ();&lt;/font&gt;&lt;/span&gt;&lt;/p&gt;&lt;p style=&quot;margin: 0cm; font-family: Calibri, sans-serif;&quot; class=&quot;MsoNormal&quot;&gt;&lt;span style=&quot;&quot; lang=&quot;EN-US&quot;&gt;&lt;font style=&quot;font-size: 14px;&quot;&gt;import sim_simulation_pkg::*&lt;/font&gt;&lt;/span&gt;&lt;/p&gt;&lt;p style=&quot;margin: 0cm; font-family: Calibri, sans-serif;&quot; class=&quot;MsoNormal&quot;&gt;&lt;span style=&quot;&quot; lang=&quot;EN-US&quot;&gt;&lt;font style=&quot;font-size: 14px;&quot;&gt;import fidus_clock_gen_bfm_pkg::*&lt;/font&gt;&lt;/span&gt;&lt;/p&gt;&lt;p style=&quot;margin: 0cm; font-family: Calibri, sans-serif;&quot; class=&quot;MsoNormal&quot;&gt;&lt;span style=&quot;&quot; lang=&quot;EN-US&quot;&gt;&lt;font style=&quot;font-size: 14px;&quot;&gt;import fidus_reset_gen_bfm_pkg::*&lt;/font&gt;&lt;/span&gt;&lt;/p&gt;&lt;p style=&quot;margin: 0cm; font-family: Calibri, sans-serif;&quot; class=&quot;MsoNormal&quot;&gt;&lt;span style=&quot;&quot; lang=&quot;EN-US&quot;&gt;&lt;font style=&quot;font-size: 14px;&quot;&gt;import fidus_axis_bfm_pkg::*&lt;/font&gt;&lt;/span&gt;&lt;/p&gt;&lt;p style=&quot;margin: 0cm; font-family: Calibri, sans-serif;&quot; class=&quot;MsoNormal&quot;&gt;&lt;span style=&quot;&quot; lang=&quot;EN-US&quot;&gt;&lt;font style=&quot;font-size: 14px;&quot;&gt;&amp;nbsp;&lt;/font&gt;&lt;/span&gt;&lt;/p&gt;&lt;p style=&quot;margin: 0cm; font-family: Calibri, sans-serif;&quot; class=&quot;MsoNormal&quot;&gt;&lt;span style=&quot;&quot; lang=&quot;EN-US&quot;&gt;&lt;font style=&quot;font-size: 14px;&quot;&gt;test_case test_case_inst ();&lt;/font&gt;&lt;/span&gt;&lt;/p&gt;&lt;p style=&quot;margin: 0cm; font-family: Calibri, sans-serif;&quot; class=&quot;MsoNormal&quot;&gt;&lt;span style=&quot;&quot; lang=&quot;EN-US&quot;&gt;&lt;font style=&quot;font-size: 14px;&quot;&gt;&amp;nbsp;&lt;/font&gt;&lt;/span&gt;&lt;/p&gt;&lt;p style=&quot;margin: 0cm; font-family: Calibri, sans-serif;&quot; class=&quot;MsoNormal&quot;&gt;&lt;span style=&quot;&quot; lang=&quot;EN-US&quot;&gt;&lt;font style=&quot;font-size: 14px;&quot;&gt;// Interfaces&lt;/font&gt;&lt;/span&gt;&lt;/p&gt;&lt;p style=&quot;margin: 0cm; font-family: Calibri, sans-serif;&quot; class=&quot;MsoNormal&quot;&gt;&lt;span style=&quot;&quot; lang=&quot;EN-US&quot;&gt;&lt;font style=&quot;font-size: 14px;&quot;&gt;clk_bfm_if clk_if();&lt;/font&gt;&lt;/span&gt;&lt;/p&gt;&lt;p style=&quot;margin: 0cm; font-family: Calibri, sans-serif;&quot; class=&quot;MsoNormal&quot;&gt;&lt;span style=&quot;&quot; lang=&quot;EN-US&quot;&gt;&lt;font style=&quot;font-size: 14px;&quot;&gt;reset_bfm_if reset_if();&lt;/font&gt;&lt;/span&gt;&lt;/p&gt;&lt;p style=&quot;margin: 0cm; font-family: Calibri, sans-serif;&quot; class=&quot;MsoNormal&quot;&gt;&lt;span style=&quot;&quot; lang=&quot;EN-US&quot;&gt;&lt;font style=&quot;font-size: 14px;&quot;&gt;axis_bfm_if axis_if;&lt;/font&gt;&lt;/span&gt;&lt;/p&gt;&lt;p style=&quot;margin: 0cm; font-family: Calibri, sans-serif;&quot; class=&quot;MsoNormal&quot;&gt;&lt;span style=&quot;&quot; lang=&quot;EN-US&quot;&gt;&lt;font style=&quot;font-size: 14px;&quot;&gt;&amp;nbsp;&lt;/font&gt;&lt;/span&gt;&lt;/p&gt;&lt;p style=&quot;margin: 0cm; font-family: Calibri, sans-serif;&quot; class=&quot;MsoNormal&quot;&gt;&lt;span style=&quot;&quot; lang=&quot;EN-US&quot;&gt;&lt;font style=&quot;font-size: 14px;&quot;&gt;// BFMs&lt;/font&gt;&lt;/span&gt;&lt;/p&gt;&lt;p style=&quot;margin: 0cm; font-family: Calibri, sans-serif;&quot; class=&quot;MsoNormal&quot;&gt;&lt;span style=&quot;&quot; lang=&quot;EN-US&quot;&gt;&lt;font style=&quot;font-size: 14px;&quot;&gt;fidus_clock_gen_bfm clk_bfm;&lt;/font&gt;&lt;/span&gt;&lt;/p&gt;&lt;p style=&quot;margin: 0cm; font-family: Calibri, sans-serif;&quot; class=&quot;MsoNormal&quot;&gt;&lt;span style=&quot;&quot; lang=&quot;EN-US&quot;&gt;&lt;font style=&quot;font-size: 14px;&quot;&gt;fidus_reset_gen_bfm reset_bfm;&lt;/font&gt;&lt;/span&gt;&lt;/p&gt;&lt;p style=&quot;margin: 0cm; font-family: Calibri, sans-serif;&quot; class=&quot;MsoNormal&quot;&gt;&lt;span style=&quot;&quot; lang=&quot;EN-US&quot;&gt;&lt;font style=&quot;font-size: 14px;&quot;&gt;fidus_axis_bfm axis_bfm;&lt;/font&gt;&lt;/span&gt;&lt;/p&gt;&lt;p style=&quot;margin: 0cm; font-family: Calibri, sans-serif;&quot; class=&quot;MsoNormal&quot;&gt;&lt;span style=&quot;&quot; lang=&quot;EN-US&quot;&gt;&lt;font style=&quot;font-size: 14px;&quot;&gt;&amp;nbsp;&lt;/font&gt;&lt;/span&gt;&lt;/p&gt;&lt;p style=&quot;margin: 0cm; font-family: Calibri, sans-serif;&quot; class=&quot;MsoNormal&quot;&gt;&lt;span style=&quot;&quot; lang=&quot;EN-US&quot;&gt;&lt;font style=&quot;font-size: 14px;&quot;&gt;// DUT&lt;/font&gt;&lt;/span&gt;&lt;/p&gt;&lt;p style=&quot;margin: 0cm; font-family: Calibri, sans-serif;&quot; class=&quot;MsoNormal&quot;&gt;&lt;span style=&quot;&quot; lang=&quot;EN-US&quot;&gt;&lt;font style=&quot;font-size: 14px;&quot;&gt;top_my_fpga uut_ints(&lt;/font&gt;&lt;/span&gt;&lt;/p&gt;&lt;p style=&quot;margin: 0cm; font-family: Calibri, sans-serif;&quot; class=&quot;MsoNormal&quot;&gt;&lt;span style=&quot;&quot; lang=&quot;EN-US&quot;&gt;&lt;font style=&quot;font-size: 14px;&quot;&gt;.clk (clk_if.clk),&lt;/font&gt;&lt;/span&gt;&lt;/p&gt;&lt;p style=&quot;margin: 0cm; font-family: Calibri, sans-serif;&quot; class=&quot;MsoNormal&quot;&gt;&lt;span style=&quot;&quot; lang=&quot;EN-US&quot;&gt;&lt;font style=&quot;font-size: 14px;&quot;&gt;.rst (rst_if.reset),&lt;/font&gt;&lt;/span&gt;&lt;/p&gt;&lt;p style=&quot;margin: 0cm; font-family: Calibri, sans-serif;&quot; class=&quot;MsoNormal&quot;&gt;&lt;span style=&quot;&quot; lang=&quot;EN-US&quot;&gt;&lt;font style=&quot;font-size: 14px;&quot;&gt;.axis (axis_if.gpio)&lt;/font&gt;&lt;/span&gt;&lt;/p&gt;&lt;p style=&quot;margin: 0cm; font-family: Calibri, sans-serif;&quot; class=&quot;MsoNormal&quot;&gt;&lt;span style=&quot;&quot; lang=&quot;EN-US&quot;&gt;&lt;font style=&quot;font-size: 14px;&quot;&gt;);&lt;/font&gt;&lt;/span&gt;&lt;/p&gt;&lt;p style=&quot;margin: 0cm; font-family: Calibri, sans-serif;&quot; class=&quot;MsoNormal&quot;&gt;&lt;span style=&quot;&quot; lang=&quot;EN-US&quot;&gt;&lt;font style=&quot;font-size: 14px;&quot;&gt;&amp;nbsp;&lt;/font&gt;&lt;/span&gt;&lt;/p&gt;&lt;p style=&quot;margin: 0cm; font-family: Calibri, sans-serif;&quot; class=&quot;MsoNormal&quot;&gt;&lt;span style=&quot;&quot; lang=&quot;EN-US&quot;&gt;&lt;font style=&quot;font-size: 14px;&quot;&gt;endmodule&lt;/font&gt;&lt;/span&gt;&lt;/p&gt;" style="text;html=1;align=left;verticalAlign=top;whiteSpace=wrap;rounded=0;" parent="1" vertex="1">
          <mxGeometry x="690" y="120" width="230" height="480" as="geometry" />
        </mxCell>
        <mxCell id="ljlgUFd7Ws2BZCSvz1c0-19" value="TC" style="rounded=0;whiteSpace=wrap;html=1;fontSize=20;verticalAlign=top;align=center;fillColor=#dae8fc;strokeColor=#6c8ebf;" parent="1" vertex="1">
          <mxGeometry x="920" y="115" width="260" height="450" as="geometry" />
        </mxCell>
        <mxCell id="ljlgUFd7Ws2BZCSvz1c0-23" value="&lt;p style=&quot;margin: 0cm; font-family: Calibri, sans-serif;&quot; class=&quot;MsoNormal&quot;&gt;&lt;span style=&quot;background-color: transparent; color: light-dark(rgb(0, 0, 0), rgb(255, 255, 255));&quot;&gt;&lt;i&gt;&lt;b&gt;tc_02_axis_stream.sv&lt;/b&gt;&lt;/i&gt;&lt;/span&gt;&lt;/p&gt;&lt;p style=&quot;margin: 0cm; font-family: Calibri, sans-serif;&quot; class=&quot;MsoNormal&quot;&gt;&lt;span style=&quot;&quot; lang=&quot;EN-US&quot;&gt;&lt;font&gt;&amp;nbsp;&lt;/font&gt;&lt;/span&gt;&lt;/p&gt;&lt;p style=&quot;margin: 0cm; font-family: Calibri, sans-serif;&quot; class=&quot;MsoNormal&quot;&gt;&lt;span style=&quot;&quot; lang=&quot;EN-US&quot;&gt;&lt;font&gt;module test_case ();&lt;/font&gt;&lt;/span&gt;&lt;/p&gt;&lt;p style=&quot;margin: 0cm; font-family: Calibri, sans-serif;&quot; class=&quot;MsoNormal&quot;&gt;&lt;span style=&quot;&quot; lang=&quot;EN-US&quot;&gt;&lt;font&gt;import sim_simulation_pkg::*&lt;/font&gt;&lt;/span&gt;&lt;/p&gt;&lt;p style=&quot;margin: 0cm; font-family: Calibri, sans-serif;&quot; class=&quot;MsoNormal&quot;&gt;&lt;span style=&quot;&quot; lang=&quot;EN-US&quot;&gt;&lt;font&gt;import fidus_clock_gen_bfm_pkg::*&lt;/font&gt;&lt;/span&gt;&lt;/p&gt;&lt;p style=&quot;margin: 0cm; font-family: Calibri, sans-serif;&quot; class=&quot;MsoNormal&quot;&gt;&lt;span style=&quot;&quot; lang=&quot;EN-US&quot;&gt;&lt;font&gt;import fidus_reset_gen_bfm_pkg::*&lt;/font&gt;&lt;/span&gt;&lt;/p&gt;&lt;p style=&quot;margin: 0cm; font-family: Calibri, sans-serif;&quot; class=&quot;MsoNormal&quot;&gt;&lt;span style=&quot;&quot; lang=&quot;EN-US&quot;&gt;&lt;font&gt;import fidus_axis_bfm_pkg::*&lt;/font&gt;&lt;/span&gt;&lt;/p&gt;&lt;p style=&quot;margin: 0cm; font-family: Calibri, sans-serif;&quot; class=&quot;MsoNormal&quot;&gt;&lt;span style=&quot;&quot; lang=&quot;EN-US&quot;&gt;&lt;font&gt;&amp;nbsp;&lt;/font&gt;&lt;/span&gt;&lt;/p&gt;&lt;p style=&quot;margin: 0cm; font-family: Calibri, sans-serif;&quot; class=&quot;MsoNormal&quot;&gt;&lt;span style=&quot;&quot; lang=&quot;EN-US&quot;&gt;&lt;font&gt;&amp;nbsp;&lt;/font&gt;&lt;/span&gt;&lt;/p&gt;&lt;p style=&quot;margin: 0cm; font-family: Calibri, sans-serif;&quot; class=&quot;MsoNormal&quot;&gt;&lt;span style=&quot;&quot; lang=&quot;EN-US&quot;&gt;&lt;font&gt;initial&lt;/font&gt;&lt;/span&gt;&lt;/p&gt;&lt;p style=&quot;margin: 0cm; font-family: Calibri, sans-serif;&quot; class=&quot;MsoNormal&quot;&gt;&lt;span style=&quot;&quot; lang=&quot;EN-US&quot;&gt;&lt;font&gt;begin&lt;/font&gt;&lt;/span&gt;&lt;/p&gt;&lt;p style=&quot;margin: 0cm; font-family: Calibri, sans-serif;&quot; class=&quot;MsoNormal&quot;&gt;&lt;span style=&quot;&quot; lang=&quot;EN-US&quot;&gt;&lt;font&gt;...&lt;/font&gt;&lt;/span&gt;&lt;/p&gt;&lt;p style=&quot;margin: 0cm; font-family: Calibri, sans-serif;&quot; class=&quot;MsoNormal&quot;&gt;&lt;span style=&quot;&quot; lang=&quot;EN-US&quot;&gt;&lt;font&gt;tb.axis_bfm = new(&quot;axis_bfm&quot;,tb.axis_if);&lt;/font&gt;&lt;/span&gt;&lt;/p&gt;&lt;p style=&quot;margin: 0cm; font-family: Calibri, sans-serif;&quot; class=&quot;MsoNormal&quot;&gt;&lt;span style=&quot;&quot; lang=&quot;EN-US&quot;&gt;&lt;font&gt;...&lt;/font&gt;&lt;/span&gt;&lt;/p&gt;&lt;p style=&quot;margin: 0cm; font-family: Calibri, sans-serif;&quot; class=&quot;MsoNormal&quot;&gt;&lt;span style=&quot;&quot; lang=&quot;EN-US&quot;&gt;&lt;font&gt;fork&lt;/font&gt;&lt;/span&gt;&lt;/p&gt;&lt;p style=&quot;margin: 0cm; font-family: Calibri, sans-serif;&quot; class=&quot;MsoNormal&quot;&gt;&lt;span style=&quot;&quot; lang=&quot;EN-US&quot;&gt;&lt;font&gt;&amp;nbsp;&amp;nbsp;&amp;nbsp; tb.axis_bfm.set(value_set);&lt;/font&gt;&lt;/span&gt;&lt;/p&gt;&lt;p style=&quot;margin: 0cm; font-family: Calibri, sans-serif;&quot; class=&quot;MsoNormal&quot;&gt;&lt;span style=&quot;&quot; lang=&quot;EN-US&quot;&gt;&lt;font&gt;&amp;nbsp;&amp;nbsp;&amp;nbsp; check and print&lt;/font&gt;&lt;/span&gt;&lt;/p&gt;&lt;p style=&quot;margin: 0cm; font-family: Calibri, sans-serif;&quot; class=&quot;MsoNormal&quot;&gt;&lt;span style=&quot;&quot; lang=&quot;EN-US&quot;&gt;&lt;font&gt;join&lt;/font&gt;&lt;/span&gt;&lt;/p&gt;&lt;p style=&quot;margin: 0cm; font-family: Calibri, sans-serif;&quot; class=&quot;MsoNormal&quot;&gt;&lt;span style=&quot;&quot; lang=&quot;EN-US&quot;&gt;&lt;font&gt;....&lt;/font&gt;&lt;/span&gt;&lt;/p&gt;&lt;p style=&quot;margin: 0cm; font-family: Calibri, sans-serif;&quot; class=&quot;MsoNormal&quot;&gt;&lt;span style=&quot;&quot; lang=&quot;EN-US&quot;&gt;&lt;font&gt;end&lt;/font&gt;&lt;/span&gt;&lt;/p&gt;&lt;p style=&quot;margin: 0cm; font-family: Calibri, sans-serif;&quot; class=&quot;MsoNormal&quot;&gt;&lt;span style=&quot;&quot; lang=&quot;EN-US&quot;&gt;&lt;font&gt;&amp;nbsp;&lt;/font&gt;&lt;/span&gt;&lt;/p&gt;&lt;p style=&quot;margin: 0cm; font-family: Calibri, sans-serif;&quot; class=&quot;MsoNormal&quot;&gt;&lt;span style=&quot;&quot; lang=&quot;EN-US&quot;&gt;&lt;font&gt;endmodule&lt;/font&gt;&lt;/span&gt;&lt;/p&gt;&lt;p style=&quot;margin: 0cm; font-family: Calibri, sans-serif;&quot; class=&quot;MsoNormal&quot;&gt;&lt;span style=&quot;&quot; lang=&quot;EN-US&quot;&gt;&lt;font&gt;&amp;nbsp;&lt;/font&gt;&lt;/span&gt;&lt;/p&gt;&lt;p style=&quot;margin: 0cm; font-family: Calibri, sans-serif;&quot; class=&quot;MsoNormal&quot;&gt;&lt;span style=&quot;&quot; lang=&quot;EN-US&quot;&gt;&lt;font&gt;&amp;nbsp;&lt;/font&gt;&lt;/span&gt;&lt;/p&gt;" style="text;html=1;align=left;verticalAlign=top;whiteSpace=wrap;rounded=0;" parent="1" vertex="1">
          <mxGeometry x="930" y="153" width="230" height="397" as="geometry" />
        </mxCell>
        <mxCell id="ljlgUFd7Ws2BZCSvz1c0-25" value="axis BFM" style="rounded=0;whiteSpace=wrap;html=1;dashed=1;dashPattern=8 8;fillColor=#fad9d5;strokeColor=#ae4132;align=center;verticalAlign=top;fontSize=20;" parent="1" vertex="1">
          <mxGeometry x="1240" y="87" width="300" height="523" as="geometry" />
        </mxCell>
        <mxCell id="ljlgUFd7Ws2BZCSvz1c0-26" value="&lt;p style=&quot;margin: 0cm; font-family: Calibri, sans-serif;&quot; class=&quot;MsoNormal&quot;&gt;&lt;span style=&quot;background-color: transparent; color: light-dark(rgb(0, 0, 0), rgb(255, 255, 255));&quot;&gt;&lt;i&gt;&lt;b&gt;axis_bfm.vs&lt;/b&gt;&lt;/i&gt;&lt;/span&gt;&lt;/p&gt;&lt;p style=&quot;margin: 0cm; font-family: Calibri, sans-serif;&quot; class=&quot;MsoNormal&quot;&gt;&lt;span style=&quot;&quot; lang=&quot;EN-US&quot;&gt;&lt;font&gt;&amp;nbsp;&lt;/font&gt;&lt;/span&gt;&lt;/p&gt;&lt;p style=&quot;margin: 0cm; font-family: Calibri, sans-serif;&quot; class=&quot;MsoNormal&quot;&gt;&lt;span style=&quot;&quot; lang=&quot;EN-US&quot;&gt;&lt;font&gt;interface axis_if;&lt;/font&gt;&lt;/span&gt;&lt;/p&gt;&lt;p style=&quot;margin: 0cm; font-family: Calibri, sans-serif;&quot; class=&quot;MsoNormal&quot;&gt;&lt;span style=&quot;&quot; lang=&quot;EN-US&quot;&gt;&lt;font&gt;...&lt;/font&gt;&lt;/span&gt;&lt;/p&gt;&lt;p style=&quot;margin: 0cm; font-family: Calibri, sans-serif;&quot; class=&quot;MsoNormal&quot;&gt;&lt;span style=&quot;&quot; lang=&quot;EN-US&quot;&gt;&lt;font&gt;package axis_bfm_pkg;&lt;/font&gt;&lt;/span&gt;&lt;/p&gt;&lt;p style=&quot;margin: 0cm; font-family: Calibri, sans-serif;&quot; class=&quot;MsoNormal&quot;&gt;&lt;span style=&quot;&quot; lang=&quot;EN-US&quot;&gt;&lt;font&gt;import sim_management_pkg::*;&lt;/font&gt;&lt;/span&gt;&lt;/p&gt;&lt;p style=&quot;margin: 0cm; font-family: Calibri, sans-serif;&quot; class=&quot;MsoNormal&quot;&gt;&lt;span style=&quot;&quot; lang=&quot;EN-US&quot;&gt;&lt;font&gt;class axis_bfm;&lt;/font&gt;&lt;/span&gt;&lt;/p&gt;&lt;p style=&quot;margin: 0cm; font-family: Calibri, sans-serif;&quot; class=&quot;MsoNormal&quot;&gt;&lt;span style=&quot;&quot; lang=&quot;EN-US&quot;&gt;&lt;font&gt;...&lt;/font&gt;&lt;/span&gt;&lt;/p&gt;&lt;p style=&quot;margin: 0cm; font-family: Calibri, sans-serif;&quot; class=&quot;MsoNormal&quot;&gt;&lt;span style=&quot;&quot; lang=&quot;EN-US&quot;&gt;&lt;font&gt;virtual axis_if vif;&lt;/font&gt;&lt;/span&gt;&lt;/p&gt;&lt;p style=&quot;margin: 0cm; font-family: Calibri, sans-serif;&quot; class=&quot;MsoNormal&quot;&gt;&lt;span style=&quot;&quot; lang=&quot;EN-US&quot;&gt;&lt;font&gt;...&lt;/font&gt;&lt;/span&gt;&lt;/p&gt;&lt;p style=&quot;margin: 0cm; font-family: Calibri, sans-serif;&quot; class=&quot;MsoNormal&quot;&gt;&lt;span style=&quot;&quot; lang=&quot;EN-US&quot;&gt;&lt;font&gt;function new(name, virtual axis_vif, ...)&lt;/font&gt;&lt;/span&gt;&lt;/p&gt;&lt;p style=&quot;margin: 0cm; font-family: Calibri, sans-serif;&quot; class=&quot;MsoNormal&quot;&gt;&lt;span style=&quot;&quot; lang=&quot;EN-US&quot;&gt;&lt;font&gt;&amp;nbsp;&amp;nbsp;&amp;nbsp; this.vif = axis_vif;&lt;/font&gt;&lt;/span&gt;&lt;/p&gt;&lt;p style=&quot;margin: 0cm; font-family: Calibri, sans-serif;&quot; class=&quot;MsoNormal&quot;&gt;&lt;span lang=&quot;EN-US&quot;&gt;...&lt;/span&gt;&lt;/p&gt;&lt;p style=&quot;margin: 0cm; font-family: Calibri, sans-serif;&quot; class=&quot;MsoNormal&quot;&gt;&lt;span style=&quot;&quot; lang=&quot;EN-US&quot;&gt;&lt;font&gt;&lt;span style=&quot;background-color: transparent; color: light-dark(rgb(0, 0, 0), rgb(255, 255, 255));&quot;&gt;task predictor(input);&lt;/span&gt;&lt;/font&gt;&lt;/span&gt;&lt;/p&gt;&lt;p style=&quot;margin: 0cm; font-family: Calibri, sans-serif;&quot; class=&quot;MsoNormal&quot;&gt;&lt;span style=&quot;background-color: transparent; color: light-dark(rgb(0, 0, 0), rgb(255, 255, 255));&quot;&gt;...&lt;/span&gt;&lt;/p&gt;&lt;p style=&quot;margin: 0cm; font-family: Calibri, sans-serif;&quot; class=&quot;MsoNormal&quot;&gt;&lt;span style=&quot;&quot; lang=&quot;EN-US&quot;&gt;&lt;font&gt;&lt;span style=&quot;background-color: transparent; color: light-dark(rgb(0, 0, 0), rgb(255, 255, 255));&quot;&gt;task scoreboard(input);&lt;/span&gt;&lt;/font&gt;&lt;/span&gt;&lt;/p&gt;&lt;p style=&quot;margin: 0cm; font-family: Calibri, sans-serif;&quot; class=&quot;MsoNormal&quot;&gt;&lt;span style=&quot;&quot; lang=&quot;EN-US&quot;&gt;&lt;font&gt;...&lt;/font&gt;&lt;/span&gt;&lt;/p&gt;&lt;p style=&quot;margin: 0cm; font-family: Calibri, sans-serif;&quot; class=&quot;MsoNormal&quot;&gt;&lt;span style=&quot;&quot; lang=&quot;EN-US&quot;&gt;&lt;font&gt;task tlp_tx(send_packet);&lt;/font&gt;&lt;/span&gt;&lt;/p&gt;&lt;p style=&quot;margin: 0cm; font-family: Calibri, sans-serif;&quot; class=&quot;MsoNormal&quot;&gt;&lt;span style=&quot;&quot; lang=&quot;EN-US&quot;&gt;&lt;font&gt;&amp;nbsp;&amp;nbsp;&amp;nbsp; &lt;i&gt;maybe modify the value&lt;/i&gt;&lt;/font&gt;&lt;/span&gt;&lt;/p&gt;&lt;p style=&quot;margin: 0cm; font-family: Calibri, sans-serif;&quot; class=&quot;MsoNormal&quot;&gt;&lt;span style=&quot;&quot; lang=&quot;EN-US&quot;&gt;&lt;font&gt;&amp;nbsp; &amp;nbsp; _driver();&lt;/font&gt;&lt;/span&gt;&lt;/p&gt;&lt;p style=&quot;margin: 0cm; font-family: Calibri, sans-serif;&quot; class=&quot;MsoNormal&quot;&gt;&lt;span style=&quot;&quot; lang=&quot;EN-US&quot;&gt;&lt;font&gt;...&lt;/font&gt;&lt;/span&gt;&lt;/p&gt;&lt;p style=&quot;margin: 0cm; font-family: Calibri, sans-serif;&quot; class=&quot;MsoNormal&quot;&gt;&lt;span style=&quot;&quot; lang=&quot;EN-US&quot;&gt;&lt;font&gt;task tlp_rx(receive_packet);&lt;/font&gt;&lt;/span&gt;&lt;/p&gt;&lt;p style=&quot;margin: 0cm; font-family: Calibri, sans-serif;&quot; class=&quot;MsoNormal&quot;&gt;&lt;span style=&quot;&quot; lang=&quot;EN-US&quot;&gt;&lt;font&gt;&amp;nbsp; &amp;nbsp; _monitor();&lt;/font&gt;&lt;/span&gt;&lt;/p&gt;&lt;p style=&quot;margin: 0cm; font-family: Calibri, sans-serif;&quot; class=&quot;MsoNormal&quot;&gt;&lt;span style=&quot;&quot; lang=&quot;EN-US&quot;&gt;&lt;font&gt;&amp;nbsp;&amp;nbsp;&amp;nbsp; &lt;i&gt;maybe modify the value&lt;/i&gt;&lt;/font&gt;&lt;/span&gt;&lt;/p&gt;&lt;p style=&quot;margin: 0cm; font-family: Calibri, sans-serif;&quot; class=&quot;MsoNormal&quot;&gt;&lt;span style=&quot;&quot; lang=&quot;EN-US&quot;&gt;&lt;font&gt;...&lt;/font&gt;&lt;/span&gt;&lt;/p&gt;&lt;p style=&quot;margin: 0cm; font-family: Calibri, sans-serif;&quot; class=&quot;MsoNormal&quot;&gt;&lt;span style=&quot;&quot; lang=&quot;EN-US&quot;&gt;&lt;font&gt;task _driver();&lt;/font&gt;&lt;/span&gt;&lt;/p&gt;&lt;p style=&quot;margin: 0cm; font-family: Calibri, sans-serif;&quot; class=&quot;MsoNormal&quot;&gt;&lt;span style=&quot;&quot; lang=&quot;EN-US&quot;&gt;&lt;font&gt;&amp;nbsp;&amp;nbsp;&amp;nbsp; @(posedge vif.clk);&lt;/font&gt;&lt;/span&gt;&lt;/p&gt;&lt;p style=&quot;margin: 0cm; font-family: Calibri, sans-serif;&quot; class=&quot;MsoNormal&quot;&gt;&lt;span style=&quot;&quot; lang=&quot;EN-US&quot;&gt;&lt;font&gt;&amp;nbsp;&amp;nbsp;&amp;nbsp; vif.out = value_to_set;&lt;/font&gt;&lt;/span&gt;&lt;/p&gt;&lt;p style=&quot;margin: 0cm; font-family: Calibri, sans-serif;&quot; class=&quot;MsoNormal&quot;&gt;&lt;span style=&quot;&quot; lang=&quot;EN-US&quot;&gt;&lt;font&gt;...&lt;/font&gt;&lt;/span&gt;&lt;/p&gt;&lt;p style=&quot;margin: 0cm; font-family: Calibri, sans-serif;&quot; class=&quot;MsoNormal&quot;&gt;&lt;span style=&quot;&quot; lang=&quot;EN-US&quot;&gt;&lt;font&gt;task _monitor();&lt;/font&gt;&lt;/span&gt;&lt;/p&gt;&lt;p style=&quot;margin: 0cm; font-family: Calibri, sans-serif;&quot; class=&quot;MsoNormal&quot;&gt;&lt;span style=&quot;&quot; lang=&quot;EN-US&quot;&gt;&lt;font&gt;&amp;nbsp;&amp;nbsp;&amp;nbsp; @(posedge vif.clk);&lt;/font&gt;&lt;/span&gt;&lt;/p&gt;&lt;p style=&quot;margin: 0cm; font-family: Calibri, sans-serif;&quot; class=&quot;MsoNormal&quot;&gt;&lt;span style=&quot;&quot; lang=&quot;EN-US&quot;&gt;&lt;font&gt;&amp;nbsp;&amp;nbsp;&amp;nbsp; value_to_get = vif.in;&lt;/font&gt;&lt;/span&gt;&lt;/p&gt;&lt;p style=&quot;margin: 0cm; font-family: Calibri, sans-serif;&quot; class=&quot;MsoNormal&quot;&gt;&lt;span style=&quot;&quot; lang=&quot;EN-US&quot;&gt;&lt;font&gt;...&lt;/font&gt;&lt;/span&gt;&lt;/p&gt;&lt;p style=&quot;margin: 0cm; font-family: Calibri, sans-serif;&quot; class=&quot;MsoNormal&quot;&gt;&lt;span style=&quot;&quot; lang=&quot;EN-US&quot;&gt;&lt;font&gt;endclass&lt;/font&gt;&lt;/span&gt;&lt;/p&gt;&lt;p style=&quot;margin: 0cm; font-family: Calibri, sans-serif;&quot; class=&quot;MsoNormal&quot;&gt;&lt;span style=&quot;background-color: transparent; color: light-dark(rgb(0, 0, 0), rgb(255, 255, 255));&quot;&gt;endpackage&lt;/span&gt;&lt;/p&gt;" style="text;html=1;align=left;verticalAlign=top;whiteSpace=wrap;rounded=0;" parent="1" vertex="1">
          <mxGeometry x="1247.5" y="92" width="272.5" height="518" as="geometry" />
        </mxCell>
        <mxCell id="ljlgUFd7Ws2BZCSvz1c0-27" value="" style="shape=flexArrow;endArrow=classic;html=1;rounded=0;entryX=0.957;entryY=0.471;entryDx=0;entryDy=0;entryPerimeter=0;fillColor=#E6E6E6;" parent="1" target="ljlgUFd7Ws2BZCSvz1c0-23" edge="1">
          <mxGeometry width="50" height="50" relative="1" as="geometry">
            <mxPoint x="1240" y="340" as="sourcePoint" />
            <mxPoint x="1170" y="340.5" as="targetPoint" />
          </mxGeometry>
        </mxCell>
        <mxCell id="ljlgUFd7Ws2BZCSvz1c0-30" value="dynamic BFM connection" style="shape=note;whiteSpace=wrap;html=1;backgroundOutline=1;darkOpacity=0.05;size=10;" parent="1" vertex="1">
          <mxGeometry x="460" y="180" width="100" height="30" as="geometry" />
        </mxCell>
        <mxCell id="ljlgUFd7Ws2BZCSvz1c0-34" value="" style="endArrow=classic;html=1;rounded=0;exitX=0;exitY=1;exitDx=0;exitDy=0;exitPerimeter=0;entryX=0;entryY=0;entryDx=0;entryDy=0;" parent="1" source="ljlgUFd7Ws2BZCSvz1c0-30" target="qz8rHRJ9PeAzRS3f3c42-3" edge="1">
          <mxGeometry width="50" height="50" relative="1" as="geometry">
            <mxPoint x="450" y="220" as="sourcePoint" />
            <mxPoint x="500" y="170" as="targetPoint" />
          </mxGeometry>
        </mxCell>
        <mxCell id="ljlgUFd7Ws2BZCSvz1c0-35" value="handles to BFMs" style="shape=note;whiteSpace=wrap;html=1;backgroundOutline=1;darkOpacity=0.05;size=10;" parent="1" vertex="1">
          <mxGeometry x="840" y="500" width="100" height="30" as="geometry" />
        </mxCell>
        <mxCell id="ljlgUFd7Ws2BZCSvz1c0-36" value="" style="endArrow=classic;html=1;rounded=0;exitX=0;exitY=0;exitDx=45;exitDy=0;exitPerimeter=0;" parent="1" source="ljlgUFd7Ws2BZCSvz1c0-35" edge="1">
          <mxGeometry width="50" height="50" relative="1" as="geometry">
            <mxPoint x="710" y="420" as="sourcePoint" />
            <mxPoint x="870" y="450" as="targetPoint" />
          </mxGeometry>
        </mxCell>
        <mxCell id="ljlgUFd7Ws2BZCSvz1c0-37" value="" style="endArrow=classic;html=1;rounded=0;exitX=-0.007;exitY=0.485;exitDx=0;exitDy=0;exitPerimeter=0;" parent="1" source="ljlgUFd7Ws2BZCSvz1c0-23" edge="1">
          <mxGeometry width="50" height="50" relative="1" as="geometry">
            <mxPoint x="890" y="320" as="sourcePoint" />
            <mxPoint x="850" y="440" as="targetPoint" />
          </mxGeometry>
        </mxCell>
        <mxCell id="ljlgUFd7Ws2BZCSvz1c0-38" value="" style="endArrow=classic;html=1;rounded=0;exitX=-0.002;exitY=0.479;exitDx=0;exitDy=0;exitPerimeter=0;entryX=0.522;entryY=0.479;entryDx=0;entryDy=0;entryPerimeter=0;" parent="1" edge="1">
          <mxGeometry width="50" height="50" relative="1" as="geometry">
            <mxPoint x="929.5400000000002" y="344.163" as="sourcePoint" />
            <mxPoint x="810.0600000000002" y="350.9200000000001" as="targetPoint" />
          </mxGeometry>
        </mxCell>
        <mxCell id="ljlgUFd7Ws2BZCSvz1c0-39" value="" style="shape=flexArrow;endArrow=classic;html=1;rounded=0;entryX=0.957;entryY=0.471;entryDx=0;entryDy=0;entryPerimeter=0;fillColor=#E6E6E6;" parent="1" edge="1">
          <mxGeometry width="50" height="50" relative="1" as="geometry">
            <mxPoint x="920" y="270" as="sourcePoint" />
            <mxPoint x="860" y="270" as="targetPoint" />
          </mxGeometry>
        </mxCell>
        <mxCell id="ljlgUFd7Ws2BZCSvz1c0-40" value="test-case file name is different from module name" style="shape=note;whiteSpace=wrap;html=1;backgroundOutline=1;darkOpacity=0.05;size=10;" parent="1" vertex="1">
          <mxGeometry x="1110" y="120" width="100" height="70" as="geometry" />
        </mxCell>
        <mxCell id="ljlgUFd7Ws2BZCSvz1c0-41" value="" style="endArrow=classic;html=1;rounded=0;entryX=0.565;entryY=0.043;entryDx=0;entryDy=0;entryPerimeter=0;exitX=0.75;exitY=0;exitDx=0;exitDy=0;" parent="1" source="ljlgUFd7Ws2BZCSvz1c0-23" target="ljlgUFd7Ws2BZCSvz1c0-23" edge="1">
          <mxGeometry width="50" height="50" relative="1" as="geometry">
            <mxPoint x="990" y="350" as="sourcePoint" />
            <mxPoint x="1040" y="300" as="targetPoint" />
          </mxGeometry>
        </mxCell>
        <mxCell id="ljlgUFd7Ws2BZCSvz1c0-42" value="" style="endArrow=classic;html=1;rounded=0;entryX=0.478;entryY=0.118;entryDx=0;entryDy=0;entryPerimeter=0;exitX=0.739;exitY=0.018;exitDx=0;exitDy=0;exitPerimeter=0;" parent="1" source="ljlgUFd7Ws2BZCSvz1c0-23" target="ljlgUFd7Ws2BZCSvz1c0-23" edge="1">
          <mxGeometry width="50" height="50" relative="1" as="geometry">
            <mxPoint x="990" y="350" as="sourcePoint" />
            <mxPoint x="1040" y="300" as="targetPoint" />
          </mxGeometry>
        </mxCell>
        <mxCell id="ljlgUFd7Ws2BZCSvz1c0-43" value="interface is like module" style="shape=note;whiteSpace=wrap;html=1;backgroundOutline=1;darkOpacity=0.05;size=10;" parent="1" vertex="1">
          <mxGeometry x="1450" y="122" width="100" height="30" as="geometry" />
        </mxCell>
        <mxCell id="ljlgUFd7Ws2BZCSvz1c0-44" value="handle to interface" style="shape=note;whiteSpace=wrap;html=1;backgroundOutline=1;darkOpacity=0.05;size=10;" parent="1" vertex="1">
          <mxGeometry x="1450" y="202" width="100" height="30" as="geometry" />
        </mxCell>
        <mxCell id="ljlgUFd7Ws2BZCSvz1c0-45" value="constructor" style="shape=note;whiteSpace=wrap;html=1;backgroundOutline=1;darkOpacity=0.05;size=10;" parent="1" vertex="1">
          <mxGeometry x="1480" y="237" width="100" height="30" as="geometry" />
        </mxCell>
        <mxCell id="ljlgUFd7Ws2BZCSvz1c0-46" value="TLM/TLP tasks&lt;div&gt;functional transaction abstraction&lt;/div&gt;" style="shape=note;whiteSpace=wrap;html=1;backgroundOutline=1;darkOpacity=0.05;size=10;" parent="1" vertex="1">
          <mxGeometry x="1450" y="363" width="100" height="60" as="geometry" />
        </mxCell>
        <mxCell id="ljlgUFd7Ws2BZCSvz1c0-47" value="internal tasks&amp;nbsp;&lt;div&gt;not called directly&lt;/div&gt;&lt;div&gt;Timing encapsulation&lt;/div&gt;" style="shape=note;whiteSpace=wrap;html=1;backgroundOutline=1;darkOpacity=0.05;size=10;" parent="1" vertex="1">
          <mxGeometry x="1450" y="473" width="130" height="60" as="geometry" />
        </mxCell>
        <mxCell id="ljlgUFd7Ws2BZCSvz1c0-48" value="" style="endArrow=classic;html=1;rounded=0;exitX=0;exitY=0.5;exitDx=0;exitDy=0;exitPerimeter=0;" parent="1" edge="1">
          <mxGeometry width="50" height="50" relative="1" as="geometry">
            <mxPoint x="1450" y="134" as="sourcePoint" />
            <mxPoint x="1336" y="137" as="targetPoint" />
          </mxGeometry>
        </mxCell>
        <mxCell id="ljlgUFd7Ws2BZCSvz1c0-49" value="" style="endArrow=classic;html=1;rounded=0;exitX=0;exitY=0.5;exitDx=0;exitDy=0;exitPerimeter=0;" parent="1" edge="1">
          <mxGeometry width="50" height="50" relative="1" as="geometry">
            <mxPoint x="1450" y="219" as="sourcePoint" />
            <mxPoint x="1336" y="222" as="targetPoint" />
          </mxGeometry>
        </mxCell>
        <mxCell id="ljlgUFd7Ws2BZCSvz1c0-50" value="" style="endArrow=classic;html=1;rounded=0;exitX=0;exitY=0.5;exitDx=0;exitDy=0;exitPerimeter=0;" parent="1" source="ljlgUFd7Ws2BZCSvz1c0-45" edge="1">
          <mxGeometry width="50" height="50" relative="1" as="geometry">
            <mxPoint x="1420" y="257" as="sourcePoint" />
            <mxPoint x="1460" y="252" as="targetPoint" />
          </mxGeometry>
        </mxCell>
        <mxCell id="ljlgUFd7Ws2BZCSvz1c0-51" value="" style="endArrow=classic;html=1;rounded=0;exitX=0.001;exitY=0.345;exitDx=0;exitDy=0;exitPerimeter=0;entryX=0.523;entryY=0.51;entryDx=0;entryDy=0;entryPerimeter=0;" parent="1" source="ljlgUFd7Ws2BZCSvz1c0-46" target="ljlgUFd7Ws2BZCSvz1c0-26" edge="1">
          <mxGeometry width="50" height="50" relative="1" as="geometry">
            <mxPoint x="1420" y="313" as="sourcePoint" />
            <mxPoint x="1370.05" y="353.19999999999993" as="targetPoint" />
          </mxGeometry>
        </mxCell>
        <mxCell id="ljlgUFd7Ws2BZCSvz1c0-52" value="" style="endArrow=classic;html=1;rounded=0;exitX=0;exitY=0.5;exitDx=0;exitDy=0;exitPerimeter=0;entryX=0.56;entryY=0.606;entryDx=0;entryDy=0;entryPerimeter=0;" parent="1" source="ljlgUFd7Ws2BZCSvz1c0-46" target="ljlgUFd7Ws2BZCSvz1c0-26" edge="1">
          <mxGeometry width="50" height="50" relative="1" as="geometry">
            <mxPoint x="1420" y="313" as="sourcePoint" />
            <mxPoint x="1370.05" y="413.05000000000007" as="targetPoint" />
          </mxGeometry>
        </mxCell>
        <mxCell id="ljlgUFd7Ws2BZCSvz1c0-53" value="" style="endArrow=classic;html=1;rounded=0;entryX=0.254;entryY=0.663;entryDx=0;entryDy=0;entryPerimeter=0;exitX=-0.008;exitY=0.35;exitDx=0;exitDy=0;exitPerimeter=0;" parent="1" source="ljlgUFd7Ws2BZCSvz1c0-47" edge="1">
          <mxGeometry width="50" height="50" relative="1" as="geometry">
            <mxPoint x="1420" y="413" as="sourcePoint" />
            <mxPoint x="1319.8899999999999" y="462.92500000000007" as="targetPoint" />
          </mxGeometry>
        </mxCell>
        <mxCell id="ljlgUFd7Ws2BZCSvz1c0-54" value="" style="endArrow=classic;html=1;rounded=0;entryX=0.289;entryY=0.789;entryDx=0;entryDy=0;entryPerimeter=0;exitX=-0.008;exitY=0.579;exitDx=0;exitDy=0;exitPerimeter=0;" parent="1" source="ljlgUFd7Ws2BZCSvz1c0-47" edge="1">
          <mxGeometry width="50" height="50" relative="1" as="geometry">
            <mxPoint x="1420" y="413" as="sourcePoint" />
            <mxPoint x="1329.865" y="522.775" as="targetPoint" />
          </mxGeometry>
        </mxCell>
        <mxCell id="ljlgUFd7Ws2BZCSvz1c0-55" value="scoreboard" style="shape=note;whiteSpace=wrap;html=1;backgroundOutline=1;darkOpacity=0.05;size=10;" parent="1" vertex="1">
          <mxGeometry x="1450" y="310.5" width="100" height="25" as="geometry" />
        </mxCell>
        <mxCell id="ljlgUFd7Ws2BZCSvz1c0-56" value="predictor" style="shape=note;whiteSpace=wrap;html=1;backgroundOutline=1;darkOpacity=0.05;size=10;" parent="1" vertex="1">
          <mxGeometry x="1450" y="279" width="100" height="25" as="geometry" />
        </mxCell>
        <mxCell id="ljlgUFd7Ws2BZCSvz1c0-57" value="" style="endArrow=classic;html=1;rounded=0;entryX=0.325;entryY=0.263;entryDx=0;entryDy=0;entryPerimeter=0;exitX=0;exitY=0.5;exitDx=0;exitDy=0;exitPerimeter=0;" parent="1" source="ljlgUFd7Ws2BZCSvz1c0-56" edge="1">
          <mxGeometry width="50" height="50" relative="1" as="geometry">
            <mxPoint x="1490" y="292" as="sourcePoint" />
            <mxPoint x="1380" y="292" as="targetPoint" />
          </mxGeometry>
        </mxCell>
        <mxCell id="ljlgUFd7Ws2BZCSvz1c0-58" value="" style="endArrow=classic;html=1;rounded=0;entryX=0.325;entryY=0.263;entryDx=0;entryDy=0;entryPerimeter=0;exitX=0;exitY=0.5;exitDx=0;exitDy=0;exitPerimeter=0;" parent="1" source="ljlgUFd7Ws2BZCSvz1c0-55" edge="1">
          <mxGeometry width="50" height="50" relative="1" as="geometry">
            <mxPoint x="1448" y="326" as="sourcePoint" />
            <mxPoint x="1390" y="322" as="targetPoint" />
          </mxGeometry>
        </mxCell>
        <mxCell id="uHSsD-i1s0tdEwdSKmlV-1" value="&lt;font&gt;SSVE Architecture&lt;/font&gt;" style="text;html=1;align=center;verticalAlign=middle;whiteSpace=wrap;rounded=0;fontSize=32;" parent="1" vertex="1">
          <mxGeometry x="790" y="10" width="275" height="30" as="geometry" />
        </mxCell>
      </root>
    </mxGraphModel>
  </diagram>
</mxfile>
